HIERARCHY
ROOT Hips
{
 OFFSET 0.000000 0.000000 0.000000
 CHANNELS 6 Xposition Yposition Zposition Yrotation Xrotation Zrotation
 JOINT Chest
 {
  OFFSET 0.000000 9.585900 0.002600
  CHANNELS 3 Yrotation Xrotation Zrotation
  JOINT Chest2
  {
   OFFSET 0.000000 9.601200 -0.005300
   CHANNELS 3 Yrotation Xrotation Zrotation
   JOINT Chest3
   {
    OFFSET 0.000000 9.561800 0.000000
    CHANNELS 3 Yrotation Xrotation Zrotation
    JOINT Chest4
    {
     OFFSET 0.000000 9.552100 0.000000
     CHANNELS 3 Yrotation Xrotation Zrotation
     JOINT Neck
     {
      OFFSET 0.000000 14.453000 0.000000
      CHANNELS 3 Yrotation Xrotation Zrotation
      JOINT Head
      {
       OFFSET 0.000000 8.936500 -0.011300
       CHANNELS 3 Yrotation Xrotation Zrotation
       End Site
       {
        OFFSET 0.000000 17.073600 -0.006000
       }
      }
     }
     JOINT RightCollar
     {
      OFFSET -2.921100 9.558500 0.000000
      CHANNELS 3 Yrotation Xrotation Zrotation
      JOINT RightShoulder
      {
       OFFSET -13.519700 0.000000 0.000000
       CHANNELS 3 Yrotation Xrotation Zrotation
       JOINT RightElbow
       {
        OFFSET 0.000000 -29.696600 0.000000
        CHANNELS 3 Yrotation Xrotation Zrotation
        JOINT RightWrist
        {
         OFFSET 0.000000 -24.004700 0.000000
         CHANNELS 3 Yrotation Xrotation Zrotation
         End Site
         {
          OFFSET 0.000000 -17.728500 0.000000
         }
        }
       }
      }
     }
     JOINT LeftCollar
     {
      OFFSET 2.921100 9.558500 0.000000
      CHANNELS 3 Yrotation Xrotation Zrotation
      JOINT LeftShoulder
      {
       OFFSET 13.519700 0.000000 0.000000
       CHANNELS 3 Yrotation Xrotation Zrotation
       JOINT LeftElbow
       {
        OFFSET 0.000000 -29.696600 0.000000
        CHANNELS 3 Yrotation Xrotation Zrotation
        JOINT LeftWrist
        {
         OFFSET 0.000000 -24.004700 0.000000
         CHANNELS 3 Yrotation Xrotation Zrotation
         End Site
         {
          OFFSET 0.000000 -17.728500 0.000000
         }
        }
       }
      }
     }
    }
   }
  }
 }
 JOINT RightHip
 {
  OFFSET -7.771700 -0.012900 -0.001300
  CHANNELS 3 Yrotation Xrotation Zrotation
  JOINT RightKnee
  {
   OFFSET 0.000000 -40.869800 0.001200
   CHANNELS 3 Yrotation Xrotation Zrotation
   JOINT RightAnkle
   {
    OFFSET 0.000000 -39.717900 0.002100
    CHANNELS 3 Yrotation Xrotation Zrotation
    JOINT RightToe
    {
     OFFSET 0.000000 -4.965400 11.033500
     CHANNELS 3 Yrotation Xrotation Zrotation
     End Site
     {
      OFFSET 0.000000 -1.423100 5.872300
     }
    }
   }
  }
 }
 JOINT LeftHip
 {
  OFFSET 7.771700 -0.012900 -0.001300
  CHANNELS 3 Yrotation Xrotation Zrotation
  JOINT LeftKnee
  {
   OFFSET 0.000000 -40.869800 0.001200
   CHANNELS 3 Yrotation Xrotation Zrotation
   JOINT LeftAnkle
   {
    OFFSET 0.000000 -39.717900 0.002100
    CHANNELS 3 Yrotation Xrotation Zrotation
    JOINT LeftToe
    {
     OFFSET 0.000000 -4.965400 11.033500
     CHANNELS 3 Yrotation Xrotation Zrotation
     End Site
     {
      OFFSET 0.000000 -1.423100 5.872300
     }
    }
   }
  }
 }
}
MOTION
Frames: 15
Frame Time: 0.008333
-236.810816 57.611230 140.205989 178.171552 -29.522475 -1.891683 1.466168 19.199309 2.716320 0.100115 2.259529 0.305910 0.205503 3.795670 0.491957 1.111335 16.539346 2.351152 -0.860442 4.834756 -4.012122 0.517442 -26.918872 -7.788340 2.911198 -2.800521 -0.849773 10.906031 -15.987766 -20.630247 143.472999 -74.540559 -104.052508 14.970782 -20.800704 -45.877015 -7.290760 -5.145597 -1.361205 4.741448 -7.075159 -1.160550 18.085695 -67.335126 -56.230190 -6.810774 5.920662 12.561344 4.102129 -46.108212 -1.513087 -12.487000 67.812338 -17.634369 3.879311 23.298909 5.092671 -0.809520 -16.015054 5.256889 -7.628105 -43.989702 2.951154 32.780687 69.787144 34.877099 -14.982105 2.198788 -5.256986 0.105468 0.123598 0.033579
-236.811290 57.608746 140.212051 178.156661 -29.553623 -1.890402 1.467499 19.200836 2.723375 0.102570 2.268310 0.305263 0.202668 3.792593 0.494671 1.115896 16.555217 2.349120 -0.883261 4.687948 -4.099241 0.543784 -27.088027 -7.934593 2.915348 -2.845122 -0.847495 10.982595 -16.026456 -20.735717 143.638217 -74.596745 -104.128555 14.953325 -20.735841 -45.962485 -7.290700 -5.177637 -1.356273 4.741589 -7.069103 -1.099133 18.098724 -67.366607 -56.278764 -6.813438 5.921268 12.566883 4.127124 -46.079437 -1.507968 -12.468216 67.803095 -17.618940 3.876362 23.316392 5.107102 -0.813254 -16.019472 5.258300 -7.648664 -43.960031 2.958351 32.801232 69.782543 34.904522 -14.974371 2.200378 -5.277029 0.105961 0.125883 0.034831
-236.811118 57.604563 140.221231 178.155321 -29.569820 -1.901363 1.443683 19.157797 2.735527 0.115858 2.301532 0.301467 0.188797 3.773482 0.502679 1.121813 16.583007 2.347885 -0.902873 4.545884 -4.202006 0.566491 -27.267438 -8.084703 2.925219 -2.930331 -0.848184 11.070835 -16.012833 -20.840306 143.778538 -74.649050 -104.191940 14.943469 -20.701091 -46.033379 -7.290159 -5.205772 -1.362222 4.736615 -7.064366 -1.045493 18.045013 -67.431353 -56.259942 -6.788278 5.924116 12.586236 4.141192 -46.066086 -1.503443 -12.448731 67.796966 -17.595237 3.873550 23.326318 5.113675 -0.820005 -16.018195 5.264998 -7.690960 -43.944240 2.973101 32.793460 69.773509 34.923165 -14.982048 2.199772 -5.322759 0.135467 0.130396 0.036745
-236.814031 57.601829 140.227399 178.139996 -29.612426 -1.887150 1.446831 19.170388 2.731789 0.112408 2.297719 0.303450 0.194169 3.796198 0.498544 1.115596 16.576081 2.358684 -0.920383 4.429308 -4.290724 0.582389 -27.487084 -8.255360 2.933207 -2.967528 -0.857344 11.160865 -16.049155 -20.946859 143.874789 -74.720878 -104.240693 14.950721 -20.681259 -46.086109 -7.293634 -5.275013 -1.350063 4.721125 -7.028692 -1.002987 18.008094 -67.480768 -56.239758 -6.786849 5.920249 12.601248 4.174427 -46.024676 -1.516140 -12.428397 67.785555 -17.579240 3.872178 23.345174 5.123106 -0.823638 -16.022178 5.270264 -7.701551 -43.905577 2.963973 32.850500 69.765510 34.966117 -14.966376 2.202896 -5.322560 0.122779 0.131400 0.030342
-236.815140 57.598371 140.234849 178.133842 -29.652480 -1.888803 1.451592 19.194798 2.739504 0.109633 2.283191 0.306476 0.196302 3.814767 0.496127 1.116297 16.580307 2.361222 -0.944786 4.296578 -4.369846 0.591402 -27.713990 -8.426417 2.932090 -3.018312 -0.851935 11.252811 -16.083455 -21.057849 143.965459 -74.795621 -104.286873 14.978824 -20.703826 -46.136311 -7.307904 -5.338272 -1.331396 4.692099 -7.019776 -0.954591 17.957429 -67.540232 -56.194076 -6.782429 5.916725 12.613859 4.191566 -45.986020 -1.513918 -12.411701 67.775226 -17.568139 3.878336 23.360390 5.141217 -0.833880 -16.024781 5.273214 -7.723104 -43.867681 2.966529 32.858456 69.758754 34.988454 -14.970313 2.203807 -5.357781 0.129466 0.134749 0.039080
-236.812816 57.594083 140.243727 178.131137 -29.689149 -1.912751 1.460442 19.214504 2.769165 0.106404 2.266180 0.308070 0.192291 3.794390 0.505728 1.121434 16.627766 2.353907 -0.971381 4.157261 -4.449279 0.597559 -27.944965 -8.596305 2.934132 -3.072858 -0.843528 11.337387 -16.114078 -21.170369 144.058279 -74.861222 -104.335463 14.972575 -20.683117 -46.202992 -7.322299 -5.396438 -1.315498 4.682502 -6.988305 -0.937934 17.822128 -67.655706 -56.088514 -6.774524 5.915974 12.627806 4.215750 -45.953740 -1.501577 -12.438650 67.761957 -17.579261 3.893022 23.384725 5.162745 -0.843951 -16.033984 5.274054 -7.748819 -43.829386 2.988917 32.761682 69.756154 34.950254 -14.997446 2.209051 -5.427894 0.187244 0.134766 0.052273
-236.816104 57.590150 140.250943 178.097094 -29.741070 -1.886526 1.480385 19.228111 2.760162 0.106390 2.269190 0.311412 0.193925 3.806612 0.504867 1.121201 16.628683 2.360032 -0.996783 4.029477 -4.530838 0.600060 -28.178562 -8.763484 2.944270 -3.114605 -0.837876 11.412054 -16.141833 -21.280474 144.143306 -74.910976 -104.374745 14.925047 -20.620821 -46.271923 -7.335449 -5.443487 -1.304150 4.623503 -7.018274 -0.863751 17.802476 -67.712064 -56.060023 -6.766560 5.917420 12.642921 4.345372 -45.904451 -1.565870 -12.485036 67.748380 -17.597446 3.947495 23.415357 5.234255 -0.880519 -16.052396 5.256230 -7.739225 -43.782847 2.973017 32.791580 69.749516 34.980884 -15.027580 2.182962 -5.463441 0.226196 0.162190 0.069320
-236.817955 57.586022 140.258067 178.104516 -29.797233 -1.888145 1.466046 19.247524 2.760545 0.108639 2.270311 0.315581 0.196658 3.835368 0.498305 1.122837 16.613754 2.372523 -1.026008 3.900886 -4.610456 0.597081 -28.412292 -8.927183 2.951181 -3.157283 -0.833272 11.482615 -16.167764 -21.387763 144.219025 -74.950320 -104.403874 14.929206 -20.592971 -46.350415 -7.349520 -5.473494 -1.301669 4.555117 -7.076122 -0.778222 17.790183 -67.775158 -56.036028 -6.763613 5.921171 12.659706 4.370937 -45.850506 -1.585577 -12.501743 67.746018 -17.598295 3.922147 23.398499 5.209110 -0.862283 -16.027809 5.277524 -7.768227 -43.730693 2.966334 32.843747 69.743537 35.022035 -14.972152 2.215183 -5.443696 0.167276 0.139363 0.048634
-236.819281 57.584138 140.260711 178.092072 -29.888954 -1.880497 1.472085 19.300662 2.766251 0.112326 2.290052 0.313036 0.193717 3.823503 0.504227 1.124523 16.622267 2.379939 -1.055183 3.771990 -4.690329 0.587902 -28.641058 -9.086430 2.953498 -3.167271 -0.840993 11.550103 -16.226442 -21.487727 144.304858 -74.981525 -104.441378 15.004264 -20.627717 -46.445991 -7.354248 -5.470194 -1.316260 4.488751 -7.157583 -0.696318 17.744482 -67.870300 -55.991529 -6.766010 5.927272 12.676297 4.444226 -45.762720 -1.617642 -12.539532 67.743546 -17.610078 3.930874 23.409707 5.228141 -0.868633 -16.032561 5.279592 -7.770682 -43.642055 2.946072 32.863022 69.735478 35.057040 -14.977898 2.226384 -5.469713 0.170506 0.135107 0.056134
-236.821881 57.578825 140.268549 178.051591 -29.949030 -1.850356 1.501354 19.317501 2.765007 0.113532 2.312738 0.309142 0.193687 3.808117 0.511860 1.126870 16.630210 2.388787 -1.091041 3.648867 -4.769035 0.574055 -28.860547 -9.239910 2.949820 -3.172679 -0.849514 11.613833 -16.281949 -21.582009 144.402817 -75.004333 -104.492563 14.967974 -20.579357 -46.509142 -7.389784 -5.566327 -1.290218 4.454827 -7.139722 -0.642419 17.694979 -67.973317 -55.945899 -6.768426 5.936265 12.690143 4.569064 -45.707938 -1.667828 -12.546153 67.734264 -17.612096 3.987570 23.443211 5.324406 -0.917676 -16.053578 5.255933 -7.746209 -43.586104 2.925443 32.866277 69.727841 35.077514 -15.024816 2.201095 -5.519596 0.234592 0.159613 0.072871
-236.819931 57.573175 140.276806 178.043535 -30.010560 -1.861556 1.500444 19.280371 2.796073 0.113946 2.318595 0.311814 0.200379 3.861723 0.503555 1.129844 16.601083 2.418517 -1.133176 3.567352 -4.866610 0.558019 -29.067278 -9.386388 2.941250 -3.172465 -0.864695 11.679694 -16.297579 -21.673125 144.427321 -75.074344 -104.504536 15.025902 -20.604473 -46.578475 -7.419808 -5.589202 -1.303813 4.418549 -7.164873 -0.572389 17.637649 -68.081593 -55.899285 -6.771022 5.948453 12.700795 4.648902 -45.652590 -1.694240 -12.602791 67.728787 -17.627633 3.996568 23.454030 5.351294 -0.921952 -16.054000 5.252183 -7.775158 -43.523529 2.934226 32.845209 69.717348 35.097277 -15.044343 2.199145 -5.586221 0.279120 0.163382 0.084114
-236.822121 57.568111 140.283127 178.027623 -30.087961 -1.841334 1.502500 19.304136 2.792277 0.114172 2.320791 0.312847 0.196283 3.832953 0.514744 1.132538 16.662052 2.405040 -1.166361 3.441055 -4.929430 0.538812 -29.258304 -9.526240 2.950084 -3.225231 -0.847415 11.729757 -16.309525 -21.758814 144.540780 -75.068330 -104.557814 15.029886 -20.579355 -46.681466 -7.436454 -5.623502 -1.294950 4.375037 -7.229461 -0.484547 17.585590 -68.192534 -55.859875 -6.778187 5.962858 12.701631 4.846239 -45.583117 -1.819482 -12.737959 67.733175 -17.652532 3.983285 23.460573 5.347984 -0.911268 -16.053143 5.260242 -7.769480 -43.451074 2.909161 32.893097 69.709580 35.136458 -15.027244 2.203707 -5.579455 0.254998 0.171187 0.080700
-236.822896 57.561675 140.291626 178.012137 -30.154643 -1.827406 1.507149 19.314636 2.796113 0.114196 2.322736 0.313948 0.194878 3.823666 0.519687 1.133395 16.704417 2.396403 -1.200785 3.322069 -4.987271 0.515947 -29.432356 -9.660166 2.955066 -3.282455 -0.833399 11.775493 -16.316796 -21.828635 144.619481 -75.063165 -104.583411 15.015919 -20.552273 -46.760477 -7.456340 -5.679026 -1.282565 4.334247 -7.273885 -0.392053 17.548179 -68.307415 -55.831480 -6.789276 5.977006 12.691134 4.983705 -45.522018 -1.900176 -12.783260 67.731169 -17.640006 3.997171 23.470181 5.382040 -0.928115 -16.051715 5.258045 -7.799317 -43.390377 2.907502 32.943972 69.701741 35.179694 -15.015866 2.214016 -5.602315 0.254667 0.165768 0.075255
-236.821899 57.554971 140.300615 177.996707 -30.222533 -1.820680 1.516058 19.323549 2.808470 0.115631 2.354042 0.308726 0.192924 3.796636 0.528028 1.132500 16.676502 2.421059 -1.240188 3.268307 -5.072395 0.491646 -29.589792 -9.786914 2.955129 -3.278486 -0.851067 11.817453 -16.323016 -21.882429 144.643938 -75.076589 -104.575222 15.022141 -20.549504 -46.820531 -7.473894 -5.699966 -1.307066 4.293377 -7.298505 -0.296708 17.521242 -68.427037 -55.812267 -6.800417 5.990327 12.677520 5.079687 -45.458106 -1.946215 -12.795868 67.722058 -17.619920 4.012931 23.486916 5.424881 -0.926042 -16.054532 5.244183 -7.785496 -43.325109 2.897788 32.916439 69.699068 35.172613 -15.019328 2.214175 -5.629396 0.271240 0.175318 0.084757
-236.820535 57.548538 140.309228 177.989607 -30.297085 -1.815813 1.519009 19.334779 2.819038 0.115640 2.389551 0.303548 0.191066 3.764672 0.536229 1.130771 16.724532 2.412264 -1.275352 3.147053 -5.117894 0.467408 -29.731618 -9.905205 2.965847 -3.395095 -0.836947 11.839568 -16.282389 -21.915645 144.635697 -75.076505 -104.534717 14.980468 -20.524865 -46.852499 -7.481850 -5.769608 -1.299243 4.244247 -7.346275 -0.194329 17.498635 -68.546762 -55.798938 -6.811222 6.003288 12.664219 5.157929 -45.385470 -1.984680 -12.783993 67.714853 -17.585044 4.015480 23.499671 5.465228 -0.927896 -16.054066 5.232580 -7.805276 -43.253369 2.902457 32.934685 69.693924 35.188130 -15.023172 2.211962 -5.655202 0.282762 0.187581 0.093749
